<svg version="1" xmlns="http://www.w3.org/2000/svg" width="192" height="192" viewBox="0 0 144.000000 144.000000"><path d="M58.5 24.9c-7.1 3.1-13 6.1-13 6.5 0 .9 70.8 32.4 71.8 31.9.4-.2.7-5.5.7-11.7 0-9.4-.3-11.7-1.7-13.4C114.2 35.8 76.8 19 73.6 19c-1.1 0-7.9 2.7-15.1 5.9zM29.4 40.4c-.3 1.4-.4 6.8-.2 12 .2 7.9.6 9.9 2.3 11.5 1.9 1.9 83.1 38.1 85.4 38.1 1.8 0 1.5-22-.4-24.7-.8-1.1-5.8-4-11.2-6.3-5.4-2.4-24-10.6-41.3-18.3-17.3-7.6-32-14.1-32.7-14.4-.7-.3-1.5.6-1.9 2.1zM28 88.4c0 6.5.4 12.5 1 13.5 1.3 2.5 39.6 19.5 43.5 19.4 3.4-.2 26.7-10.4 27.2-12 .3-.9-64.5-30.6-69.9-32.1-1.6-.4-1.8.6-1.8 11.2z"/></svg>