<?xml version="1.0" encoding="UTF-8"?>
<svg width="86px" height="86px" viewBox="0 0 86 86" version="1.1" xmlns="http://www.w3.org/2000/svg" xmlns:xlink="http://www.w3.org/1999/xlink">
    <!-- Generator: Sketch 48.2 (47327) - http://www.bohemiancoding.com/sketch -->
    <title>FAQ_icon@1x</title>
    <desc>Created with Sketch.</desc>
    <defs></defs>
    <g id="SEMUX-Copy-3" stroke="none" stroke-width="1" fill="none" fill-rule="evenodd" transform="translate(-677.000000, -2994.000000)">
        <g id="FAQ_icon" transform="translate(677.000000, 2994.000000)" fill-rule="nonzero">
            <path d="M75.1193822,41.6509069 L74.9180911,38.9009505 L76.6619327,37.1571089 C84.3750257,29.4440158 84.3750257,16.8347129 76.6619327,9.18854653 C68.9488396,1.47545347 56.4064634,1.47545347 48.6933703,9.18854653 L46.9495287,10.9323881 C46.0776079,10.7981941 45.1385901,10.731097 44.1995723,10.731097 L47.2177465,7.71292277 C55.7356634,-0.804994059 69.6194693,-0.872091089 78.1373861,7.71292277 C86.655303,16.2308396 86.655303,30.1146455 78.1373861,38.6325624 C78.1375564,38.6327327 75.1193822,41.6509069 75.1193822,41.6509069 Z M38.9682178,10.9996554 L37.2243762,9.25581386 C29.5112832,1.54272079 16.9019802,1.54272079 9.25581386,9.25581386 C1.47562376,16.9018099 1.47562376,29.5112832 9.25581386,37.2243762 L10.9996554,38.9682178 C10.8654614,39.8401386 10.7983644,40.7791564 10.7983644,41.7181743 L7.7801901,38.7 C-0.737726733,30.1820832 -0.804823762,16.2982772 7.7801901,7.7803604 C16.2981069,-0.737556436 30.1819129,-0.737556436 38.6998297,7.7803604 L41.718004,10.7985347 C40.7789861,10.7983644 39.8401386,10.8654614 38.9682178,10.9996554 Z M10.7312673,44.1997426 L10.9325584,46.949699 L9.18871683,48.6935406 C1.47562376,56.4066337 1.47562376,69.0159366 9.1216198,76.6619327 C16.8347129,84.3750257 29.3770891,84.3750257 37.0901822,76.6619327 L38.8340238,74.9180911 C39.7059446,75.0522851 40.6449624,75.1193822 41.5839802,75.1193822 L38.5658059,78.1375564 C30.0478891,86.6554733 16.1640832,86.7225703 7.64616634,78.2046535 C-0.871750495,69.6867366 -0.871920792,55.8029307 7.71309307,47.2848436 L10.7312673,44.1997426 Z M46.8824317,74.8509941 L48.6262733,76.5948356 C56.3393663,84.3079287 68.9486693,84.3079287 76.5948356,76.5948356 C84.3079287,68.8817426 84.3079287,56.3393663 76.5277386,48.6262733 L74.783897,46.8824317 C74.9180911,46.0105109 74.9851881,45.0714931 74.9851881,44.1324752 L78.0033624,47.1506495 C86.5212792,55.6685663 86.5883762,69.5523723 78.0704594,78.0702891 C69.5525426,86.5882059 55.6687366,86.5882059 47.1508198,78.0031921 L44.1326455,74.9850178 C45.0716634,75.0522851 46.0105109,74.9851881 46.8824317,74.8509941 Z" id="Shape" fill="#E4E7E7"></path>
            <path d="M42.9254099,0 C19.2493545,0 0,19.2493545 0,42.9254099 C0,66.6014653 19.1822574,85.8508198 42.9254099,85.8508198 C66.6014653,85.8508198 85.8508198,66.6014653 85.8508198,42.9254099 C85.8508198,19.2493545 66.601295,0 42.9254099,0 Z M42.9254099,64.3879446 C31.0538337,64.3879446 21.462705,54.7968158 21.462705,42.9252396 C21.462705,31.0536634 31.0538337,21.4625347 42.9254099,21.4625347 C54.7969861,21.4625347 64.3881149,31.0536634 64.3881149,42.9252396 C64.3881149,54.7968158 54.7968158,64.3879446 42.9254099,64.3879446 Z" id="Shape" fill="#FF774B"></path>
            <path d="M42.9254099,16.2982772 C28.2369505,16.2982772 16.2982772,28.2369505 16.2982772,42.9254099 C16.2982772,57.6138693 28.2369505,69.5525426 42.9254099,69.5525426 C57.6138693,69.5525426 69.5525426,57.6138693 69.5525426,42.9254099 C69.5525426,28.2369505 57.6138693,16.2982772 42.9254099,16.2982772 Z M42.9254099,64.3879446 C31.0538337,64.3879446 21.462705,54.7968158 21.462705,42.9252396 C21.462705,31.0536634 31.0538337,21.4625347 42.9254099,21.4625347 C54.7969861,21.4625347 64.3881149,31.0536634 64.3881149,42.9252396 C64.3881149,54.7968158 54.7968158,64.3879446 42.9254099,64.3879446 Z" id="Shape" fill="#FBA64E"></path>
            <path d="M42.9254099,6.03634851 C22.5359168,6.03634851 6.03651881,22.5357465 6.03651881,42.9252396 C6.03651881,63.3147327 22.5359168,79.8141307 42.9254099,79.8141307 C63.314903,79.8141307 79.814301,63.3147327 79.814301,42.9252396 C79.814301,22.5357465 63.314903,6.03634851 42.9254099,6.03634851 Z M42.9254099,77.1314416 C24.0113703,77.1314416 8.71920792,61.8392792 8.71920792,42.9252396 C8.71920792,24.0112 24.0113703,8.71920792 42.9254099,8.71920792 C61.8394495,8.71920792 77.1316119,24.0113703 77.1316119,42.9254099 C77.1316119,61.8394495 61.8392792,77.1314416 42.9254099,77.1314416 Z" id="Shape" fill="#E5685E"></path>
            <path d="M32.931699,61.9063762 C29.041604,59.8943168 25.8892356,56.6748515 23.8771762,52.8518535 L8.38389307,68.4122337 C10.9325584,71.8328198 13.9507327,74.9180911 17.4384158,77.4667564 L32.931699,61.9063762 Z M52.8518535,23.8771762 C56.7419485,25.8892356 59.8943168,29.041604 61.9063762,32.931699 L77.4667564,17.4384158 C74.9180911,14.0178297 71.8328198,10.9325584 68.4122337,8.38389307 L52.8518535,23.8771762 Z M8.38389307,17.4384158 L23.8771762,32.931699 C25.8892356,29.041604 29.041604,25.8892356 32.931699,23.8771762 L17.4384158,8.38389307 C14.0178297,10.9325584 10.9325584,14.0178297 8.38389307,17.4384158 Z M77.4667564,68.4122337 L61.9734733,52.9189505 C59.9614139,56.8090455 56.8090455,59.9614139 52.9189505,61.9734733 L68.4122337,77.4667564 C71.8328198,74.9180911 74.9180911,71.8328198 77.4667564,68.4122337 Z" id="Shape" fill="#EFEFEF"></path>
            <path d="M56.6748515,20.1212752 L52.9189505,23.8771762 C56.8090455,25.8892356 59.9614139,29.041604 61.9734733,32.931699 L65.7293743,29.175798 C63.4489267,25.4869941 60.3638257,22.3346257 56.6748515,20.1212752 Z M23.8771762,52.8518535 L20.1212752,56.6748515 C22.3346257,60.3638257 25.4869941,63.4489267 29.175798,65.7293743 L32.931699,61.9734733 C29.108701,59.8943168 25.9563327,56.7419485 23.8771762,52.8518535 Z M52.9189505,61.9734733 L56.6748515,65.7293743 C60.3638257,63.5160238 63.4489267,60.3636554 65.7293743,56.6748515 L61.9734733,52.9189505 C59.8943168,56.7419485 56.7419485,59.8943168 52.9189505,61.9734733 Z M32.998796,23.9442733 L29.175798,20.1212752 C25.4868238,22.4017228 22.4017228,25.4869941 20.1212752,29.175798 L23.8771762,32.931699 C25.9563327,29.108701 29.108701,25.9563327 32.998796,23.9442733 Z" id="Shape" fill="#E6E6E6"></path>
            <path d="M14.6213624,62.1745941 L12.6762297,64.1197267 C15.157798,67.6074099 18.1759723,70.6926812 21.7307525,73.1742495 L23.6758851,71.2291168 C20.1212752,68.7475485 17.036004,65.7293743 14.6213624,62.1745941 Z M71.2292871,62.1745941 C68.8148158,65.7293743 65.7295446,68.8146455 62.1747644,71.2291168 L64.119897,73.1742495 C67.6075802,70.6926812 70.6928515,67.6074099 73.1744198,64.1197267 L71.2292871,62.1745941 Z M14.6213624,23.6760554 C17.0358337,20.1212752 20.121105,17.036004 23.6758851,14.6215327 L21.7980198,12.743497 C18.3103366,15.2250653 15.2250653,18.3103366 12.743497,21.7980198 L14.6213624,23.6760554 Z M71.2292871,23.6760554 L73.1744198,21.7309228 C70.6928515,18.2432396 67.6075802,15.1579683 64.119897,12.6764 L62.1747644,14.6215327 C65.7293743,17.036004 68.7475485,20.1212752 71.2292871,23.6760554 Z" id="Shape" fill="#F1F1F1"></path>
        </g>
    </g>
</svg>