<?xml version="1.0" encoding="UTF-8"?>
<svg width="128px" height="128px" viewBox="0 0 128 128" version="1.1" xmlns="http://www.w3.org/2000/svg" xmlns:xlink="http://www.w3.org/1999/xlink">
    <!-- Generator: Sketch 48.2 (47327) - http://www.bohemiancoding.com/sketch -->
    <title>high performance@1x</title>
    <desc>Created with Sketch.</desc>
    <defs></defs>
    <g id="SEMUX-Copy-3" stroke="none" stroke-width="1" fill="none" fill-rule="evenodd" transform="translate(-801.000000, -1276.000000)">
        <g id="Services" transform="translate(172.000000, 1258.000000)" fill-rule="nonzero">
            <g id="high-performance" transform="translate(629.000000, 18.000000)">
                <path d="M111.483871,20.6451613 L0,20.6451613 L0,0 L111.483871,0 L111.483871,20.6451613 Z M4.12903226,16.516129 L107.354839,16.516129 L107.354839,4.12903226 L4.12903226,4.12903226 L4.12903226,16.516129 Z" id="Shape" fill="#EB4D39"></path>
                <path d="M125.935484,97.0322581 L125.935484,88.7741935 L119.085419,87.0627097 C118.402065,83.9824516 117.184,81.1107097 115.54271,78.5300645 L119.180387,72.4665806 L113.341935,66.628129 L107.278452,70.2658065 C104.697806,68.6245161 101.826065,67.4064516 98.7458065,66.7230968 L97.0322581,59.8709677 L88.7741935,59.8709677 L87.0627097,66.7210323 C83.9845161,67.4043871 81.1107097,68.6224516 78.5300645,70.2637419 L72.4665806,66.6260645 L66.6260645,72.4645161 L70.2637419,78.528 C68.6224516,81.1086452 67.4043871,83.9803871 66.7210323,87.0606452 L59.8709677,88.7741935 L59.8709677,97.0322581 L66.7210323,98.7437419 C67.4043871,101.824 68.6224516,104.695742 70.2637419,107.276387 L66.6260645,113.339871 L72.4645161,119.178323 L78.528,115.540645 C81.1086452,117.181935 83.9803871,118.4 87.0606452,119.083355 L88.7741935,125.935484 L97.0322581,125.935484 L98.7437419,119.085419 C101.824,118.402065 104.695742,117.184 107.276387,115.54271 L113.339871,119.180387 L119.178323,113.341935 L115.540645,107.278452 C117.181935,104.697806 118.4,101.826065 119.083355,98.7458065 L125.935484,97.0322581 Z M92.9032258,103.225806 C87.2030968,103.225806 82.5806452,98.6033548 82.5806452,92.9032258 C82.5806452,87.2030968 87.2030968,82.5806452 92.9032258,82.5806452 C98.6033548,82.5806452 103.225806,87.2030968 103.225806,92.9032258 C103.225806,98.6033548 98.6033548,103.225806 92.9032258,103.225806 Z" id="Shape" fill="#FBAC4D"></path>
                <g id="Group" transform="translate(8.258065, 8.258065)" fill="#EB4D39">
                    <rect id="Rectangle-path" x="0" y="0" width="4.12903226" height="4.12903226"></rect>
                    <rect id="Rectangle-path" x="8.25806452" y="0" width="4.12903226" height="4.12903226"></rect>
                    <rect id="Rectangle-path" x="16.516129" y="0" width="4.12903226" height="4.12903226"></rect>
                    <rect id="Rectangle-path" x="12.3870968" y="28.9032258" width="4.12903226" height="16.516129"></rect>
                </g>
                <g id="Group" transform="translate(0.000000, 24.774194)" fill="#3B3D66">
                    <polygon id="Shape" points="4.12903226 0 0 0 0 82.5806452 61.9354839 82.5806452 61.9354839 78.4516129 4.12903226 78.4516129"></polygon>
                    <rect id="Rectangle-path" x="107.354839" y="0" width="4.12903226" height="35.0967742"></rect>
                    <path d="M128,73.8704516 L128,62.3876129 L120.792774,60.5873548 C120.037161,57.792 118.860387,55.1246452 117.285161,52.6472258 L113.800258,54.8603871 C115.35071,57.3006452 116.451097,59.9494194 117.068387,62.7344516 L117.345032,63.9814194 L123.870968,65.6123871 L123.870968,70.6456774 L117.345032,72.2766452 L117.068387,73.5236129 C116.451097,76.3107097 115.35071,78.9594839 113.800258,81.3976774 L113.114839,82.4732903 L116.581161,88.2477419 L113.019871,91.8090323 L107.245419,88.3427097 L106.169806,89.028129 C103.731613,90.5785806 101.082839,91.6789677 98.2978065,92.2962581 L97.0508387,92.5729032 L95.419871,99.0967742 L90.3865806,99.0967742 L88.7556129,92.5708387 L87.5086452,92.2941935 C84.7215484,91.6769032 82.0727742,90.5765161 79.6345806,89.0260645 L78.5589677,88.3406452 L72.7845161,91.8069677 L68.0856774,87.108129 L65.1664516,90.0273548 L72.1445161,97.0054194 L78.523871,93.1778065 C80.6833548,94.4247742 82.9729032,95.3723871 85.3615484,96.0185806 L87.1618065,103.225806 L98.6446452,103.225806 L100.444903,96.0185806 C102.831484,95.3744516 105.123097,94.4247742 107.282581,93.1778065 L113.661935,97.0054194 L121.779613,88.8877419 L117.952,82.5083871 C119.198968,80.3489032 120.146581,78.0593548 120.792774,75.6707097 L128,73.8704516 Z" id="Shape"></path>
                    <path d="M72.0061935,81.3976774 C70.4557419,78.9574194 69.3553548,76.3086452 68.7380645,73.5236129 L68.4614194,72.2766452 L61.9354839,70.6456774 L61.9354839,65.6123871 L68.4614194,63.9814194 L68.7380645,62.7344516 C69.3553548,59.9473548 70.4557419,57.2985806 72.0061935,54.8603871 L72.6916129,53.7847742 L69.2252903,48.0103226 L72.7865806,44.4490323 L78.5610323,47.9153548 L79.6366452,47.2299355 C82.0748387,45.6794839 84.7236129,44.5790968 87.5086452,43.9618065 L88.7556129,43.6851613 L90.3865806,37.1612903 L95.419871,37.1612903 L97.0508387,43.6872258 L98.2978065,43.963871 C101.084903,44.5811613 103.733677,45.6815484 106.171871,47.232 L107.247484,47.9174194 L113.021935,44.4510968 L117.720774,49.1499355 L120.64,46.2307097 L113.661935,39.2526452 L107.282581,43.0802581 C105.123097,41.8332903 102.833548,40.8856774 100.444903,40.2394839 L98.6446452,33.0322581 L87.1618065,33.0322581 L85.3615484,40.2394839 C82.9749677,40.8836129 80.6833548,41.8332903 78.523871,43.0802581 L72.1445161,39.2526452 L64.0268387,47.3703226 L67.8544516,53.7496774 C66.6074839,55.9091613 65.659871,58.1987097 65.0136774,60.5873548 L57.8064516,62.3876129 L57.8064516,73.8704516 L65.0136774,75.6707097 C65.7692903,78.4660645 66.9460645,81.1334194 68.5212903,83.6108387 L72.0061935,81.3976774 Z" id="Shape"></path>
                    <path d="M92.9032258,47.483871 C81.5194839,47.483871 72.2580645,56.7452903 72.2580645,68.1290323 C72.2580645,79.5127742 81.5194839,88.7741935 92.9032258,88.7741935 C104.286968,88.7741935 113.548387,79.5127742 113.548387,68.1290323 C113.548387,56.7452903 104.286968,47.483871 92.9032258,47.483871 Z M92.9032258,84.6451613 C83.7966452,84.6451613 76.3870968,77.2356129 76.3870968,68.1290323 C76.3870968,59.0224516 83.7966452,51.6129032 92.9032258,51.6129032 C102.009806,51.6129032 109.419355,59.0224516 109.419355,68.1290323 C109.419355,77.2356129 102.009806,84.6451613 92.9032258,84.6451613 Z" id="Shape"></path>
                    <path d="M92.9032258,55.7419355 C86.0717419,55.7419355 80.516129,61.2975484 80.516129,68.1290323 C80.516129,74.9605161 86.0717419,80.516129 92.9032258,80.516129 C99.7347097,80.516129 105.290323,74.9605161 105.290323,68.1290323 C105.290323,61.2975484 99.7347097,55.7419355 92.9032258,55.7419355 Z M92.9032258,76.3870968 C88.3489032,76.3870968 84.6451613,72.6833548 84.6451613,68.1290323 C84.6451613,63.5747097 88.3489032,59.8709677 92.9032258,59.8709677 C97.4575484,59.8709677 101.16129,63.5747097 101.16129,68.1290323 C101.16129,72.6833548 97.4575484,76.3870968 92.9032258,76.3870968 Z" id="Shape"></path>
                    <polygon id="Shape" points="53.6774194 66.0645161 16.516129 66.0645161 16.516129 8.25806452 94.9677419 8.25806452 94.9677419 28.9032258 99.0967742 28.9032258 99.0967742 4.12903226 12.3870968 4.12903226 12.3870968 70.1935484 53.6774194 70.1935484"></polygon>
                    <path d="M41.2903226,28.9032258 L41.2903226,12.3870968 L28.9032258,12.3870968 L28.9032258,28.9032258 L41.2903226,28.9032258 Z M33.0322581,16.516129 L37.1612903,16.516129 L37.1612903,24.7741935 L33.0322581,24.7741935 L33.0322581,16.516129 Z" id="Shape"></path>
                    <path d="M66.0645161,28.9032258 L66.0645161,12.3870968 L53.6774194,12.3870968 L53.6774194,28.9032258 L66.0645161,28.9032258 Z M57.8064516,16.516129 L61.9354839,16.516129 L61.9354839,24.7741935 L57.8064516,24.7741935 L57.8064516,16.516129 Z" id="Shape"></path>
                    <path d="M82.5806452,28.9032258 L82.5806452,12.3870968 L70.1935484,12.3870968 L70.1935484,28.9032258 L82.5806452,28.9032258 Z M74.3225806,16.516129 L78.4516129,16.516129 L78.4516129,24.7741935 L74.3225806,24.7741935 L74.3225806,16.516129 Z" id="Shape"></path>
                </g>
                <g id="Group" transform="translate(45.419355, 37.161290)" fill="#EB4D39">
                    <rect id="Rectangle-path" x="0" y="0" width="4.12903226" height="16.516129"></rect>
                    <rect id="Rectangle-path" x="41.2903226" y="0" width="4.12903226" height="16.516129"></rect>
                </g>
            </g>
        </g>
    </g>
</svg>