<?xml version="1.0" encoding="UTF-8"?>
<svg width="128px" height="129px" viewBox="0 0 128 129" version="1.1" xmlns="http://www.w3.org/2000/svg" xmlns:xlink="http://www.w3.org/1999/xlink">
    <!-- Generator: Sketch 48.2 (47327) - http://www.bohemiancoding.com/sketch -->
    <title>intsant finally@1x</title>
    <desc>Created with Sketch.</desc>
    <defs></defs>
    <g id="SEMUX-Copy-3" stroke="none" stroke-width="1" fill="none" fill-rule="evenodd" transform="translate(-516.000000, -1276.000000)">
        <g id="Services" transform="translate(172.000000, 1258.000000)" fill-rule="nonzero">
            <g id="intsant-finally" transform="translate(344.000000, 18.000000)">
                <path d="M64,26.8692587 C48.0371613,26.8692587 35.0967742,39.8243751 35.0967742,55.8053835 C35.0967742,62.8926672 37.6505806,69.376426 41.8745806,74.407178 L86.1254194,74.407178 C90.3494194,69.376426 92.9032258,62.8926672 92.9032258,55.8053835 C92.9032258,39.8243751 79.9628387,26.8692587 64,26.8692587 Z" id="Shape" fill="#FAAF59"></path>
                <g id="Group" transform="translate(16.516129, 0.000000)" fill="#EB4D39">
                    <path d="M94.9677419,20.6686605 L0,20.6686605 L0,0 L94.9677419,0 L94.9677419,20.6686605 Z M4.12903226,16.5349284 L90.8387097,16.5349284 L90.8387097,4.13373211 L4.12903226,4.13373211 L4.12903226,16.5349284 Z" id="Shape"></path>
                    <rect id="Rectangle-path" x="8.25806452" y="8.26746422" width="4.12903226" height="4.13373211"></rect>
                    <rect id="Rectangle-path" x="16.516129" y="8.26746422" width="4.12903226" height="4.13373211"></rect>
                    <rect id="Rectangle-path" x="24.7741935" y="8.26746422" width="4.12903226" height="4.13373211"></rect>
                </g>
                <g id="Group" transform="translate(0.000000, 20.668661)">
                    <path d="M0,84.7415082 C0,90.4398579 4.63070968,95.0758385 10.3225806,95.0758385 L35.0967742,95.0758385 L35.0967742,103.343303 L26.8387097,103.343303 L26.8387097,107.477035 L101.16129,107.477035 L101.16129,103.343303 L92.9032258,103.343303 L92.9032258,95.0758385 L117.677419,95.0758385 C123.36929,95.0758385 128,90.4398579 128,84.7415082 L128,78.5409101 L0,78.5409101 L0,84.7415082 Z M88.7741935,103.343303 L39.2258065,103.343303 L39.2258065,95.0758385 L88.7741935,95.0758385 L88.7741935,103.343303 Z M4.12903226,82.6746422 L123.870968,82.6746422 L123.870968,84.7415082 C123.870968,88.1601047 121.092129,90.9421064 117.677419,90.9421064 L10.3225806,90.9421064 C6.90787097,90.9421064 4.12903226,88.1601047 4.12903226,84.7415082 L4.12903226,82.6746422 Z" id="Shape" fill="#3B3D66"></path>
                    <path d="M117.677419,0 L115.612903,0 L115.612903,4.13373211 L117.677419,4.13373211 C121.092129,4.13373211 123.870968,6.91573382 123.870968,10.3343303 L123.870968,74.407178 L128,74.407178 L128,10.3343303 C128,4.63598056 123.36929,0 117.677419,0 Z" id="Shape" fill="#3B3D66"></path>
                    <path d="M4.12903226,10.3343303 C4.12903226,6.91573382 6.90787097,4.13373211 10.3225806,4.13373211 L12.3870968,4.13373211 L12.3870968,0 L10.3225806,0 C4.63070968,0 0,4.63598056 0,10.3343303 L0,74.407178 L4.12903226,74.407178 L4.12903226,10.3343303 Z" id="Shape" fill="#3B3D66"></path>
                    <polygon id="Shape" fill="#3B3D66" points="111.483871 4.13373211 107.354839 4.13373211 107.354839 70.2734458 20.6451613 70.2734458 20.6451613 4.13373211 16.516129 4.13373211 16.516129 74.407178 111.483871 74.407178"></polygon>
                    <path d="M64,66.1397137 C81.0756129,66.1397137 94.9677419,52.2317721 94.9677419,35.1367229 C94.9677419,18.0416738 81.0756129,4.13373211 64,4.13373211 C46.9243871,4.13373211 33.0322581,18.0416738 33.0322581,35.1367229 C33.0322581,52.2317721 46.9243871,66.1397137 64,66.1397137 Z M48.8402581,12.9861194 L50.8552258,16.4811899 L54.4309677,14.4143239 L52.4221935,10.9337214 C55.3434839,9.52825251 58.5455484,8.63329951 61.9313548,8.37287439 L61.9313548,12.4011963 L66.0603871,12.4011963 L66.0603871,8.37287439 C69.4461935,8.63329951 72.6503226,9.52618564 75.5695484,10.9337214 L73.5607742,14.4143239 L77.1365161,16.4811899 L79.1514839,12.9861194 C81.8787097,14.8628338 84.2425806,17.2293954 86.1192258,19.9617924 L82.628129,21.9790536 L84.6926452,25.5588656 L88.1692903,23.547805 C89.5731613,26.4724204 90.4670968,29.6781297 90.7272258,33.06779 L86.7096774,33.06779 L86.7096774,37.2015221 L90.7334194,37.2015221 C90.4732903,40.5911824 89.5814194,43.7989586 88.1754839,46.7215072 L84.6988387,44.7104465 L82.6343226,48.2902585 L86.1254194,50.3075198 C81.284129,57.3658673 73.1747097,62.0059816 64,62.0059816 C54.8252903,62.0059816 46.715871,57.3658673 41.8745806,50.3137204 L45.3656774,48.2964591 L43.3011613,44.7166471 L39.8245161,46.7277078 C38.4206452,43.8030923 37.5267097,40.597383 37.2665806,37.2077227 L41.2903226,37.2077227 L41.2903226,33.0739906 L37.2665806,33.0739906 C37.5267097,29.6843303 38.4185806,26.4765542 39.8245161,23.5540056 L43.3011613,25.5650662 L45.3656774,21.9852542 L41.8745806,19.967993 C43.7491613,17.2293954 46.1130323,14.8628338 48.8402581,12.9861194 Z" id="Shape" fill="#3B3D66"></path>
                    <path d="M64,41.3373211 C67.4147097,41.3373211 70.1935484,38.5553194 70.1935484,35.1367229 C70.1935484,32.8714377 68.9610323,30.9058481 67.1442581,29.8248772 L70.1378065,17.0061739 L66.1181935,16.0657498 L63.0916129,29.0291337 C60.1083871,29.4735099 57.8064516,32.0281564 57.8064516,35.1367229 C57.8064516,38.5553194 60.5852903,41.3373211 64,41.3373211 Z M64,33.0698569 C65.1396129,33.0698569 66.0645161,33.9958129 66.0645161,35.1367229 C66.0645161,36.277633 65.1396129,37.203589 64,37.203589 C62.8603871,37.203589 61.9354839,36.277633 61.9354839,35.1367229 C61.9354839,33.9958129 62.8603871,33.0698569 64,33.0698569 Z" id="Shape" fill="#3F3A34"></path>
                    <rect id="Rectangle-path" fill="#3B3D66" x="51.6129032" y="49.6047853" width="24.7741935" height="4.13373211"></rect>
                </g>
            </g>
        </g>
    </g>
</svg>