<?xml version="1.0" encoding="UTF-8"?>
<svg width="128px" height="128px" viewBox="0 0 128 128" version="1.1" xmlns="http://www.w3.org/2000/svg" xmlns:xlink="http://www.w3.org/1999/xlink">
    <!-- Generator: Sketch 48.2 (47327) - http://www.bohemiancoding.com/sketch -->
    <title>original codebase@1x</title>
    <desc>Created with Sketch.</desc>
    <defs></defs>
    <g id="SEMUX-Copy-3" stroke="none" stroke-width="1" fill="none" fill-rule="evenodd" transform="translate(-228.000000, -1277.000000)">
        <g id="Services" transform="translate(172.000000, 1258.000000)" fill-rule="nonzero">
            <g id="original-codebase" transform="translate(56.000000, 19.000000)">
                <polygon id="Shape" fill="#EB4D39" points="75.7821935 84.0402581 72.8629677 81.1210323 83.7904516 70.1935484 72.8629677 59.2660645 75.7821935 56.3468387 89.6289032 70.1935484"></polygon>
                <polygon id="Shape" fill="#FAAF59" points="45.4193548 10.3225806 45.4193548 24.7741935 33.0322581 24.7741935 33.0322581 30.9677419 94.9677419 30.9677419 94.9677419 10.3225806"></polygon>
                <g id="Group" transform="translate(38.193548, 53.161290)" fill="#EB4D39">
                    <polygon id="Shape" points="14.0242581 30.8789677 0.177548387 17.0322581 14.0242581 3.18554839 16.9434839 6.10477419 6.016 17.0322581 16.9434839 27.9597419"></polygon>
                    <rect id="Rectangle-path" transform="translate(26.835944, 17.030421) rotate(100.637958) translate(-26.835944, -17.030421) " x="10.0322999" y="14.9669649" width="33.6072882" height="4.12691203"></rect>
                </g>
                <g id="Group" fill="#3B3D66">
                    <path d="M0,105.290323 C0,110.982194 4.63070968,115.612903 10.3225806,115.612903 L35.0967742,115.612903 L35.0967742,123.870968 L26.8387097,123.870968 L26.8387097,128 L101.16129,128 L101.16129,123.870968 L92.9032258,123.870968 L92.9032258,115.612903 L117.677419,115.612903 C123.36929,115.612903 128,110.982194 128,105.290323 L128,99.0967742 L0,99.0967742 L0,105.290323 Z M88.7741935,123.870968 L39.2258065,123.870968 L39.2258065,115.612903 L88.7741935,115.612903 L88.7741935,123.870968 Z M4.12903226,103.225806 L123.870968,103.225806 L123.870968,105.290323 C123.870968,108.705032 121.092129,111.483871 117.677419,111.483871 L10.3225806,111.483871 C6.90787097,111.483871 4.12903226,108.705032 4.12903226,105.290323 L4.12903226,103.225806 Z" id="Shape"></path>
                    <path d="M117.677419,20.6451613 L109.419355,20.6451613 L109.419355,24.7741935 L117.677419,24.7741935 C121.092129,24.7741935 123.870968,27.5530323 123.870968,30.9677419 L123.870968,94.9677419 L128,94.9677419 L128,30.9677419 C128,25.275871 123.36929,20.6451613 117.677419,20.6451613 Z" id="Shape"></path>
                    <path d="M4.12903226,30.9677419 C4.12903226,27.5530323 6.90787097,24.7741935 10.3225806,24.7741935 L18.5806452,24.7741935 L18.5806452,20.6451613 L10.3225806,20.6451613 C4.63070968,20.6451613 0,25.275871 0,30.9677419 L0,94.9677419 L4.12903226,94.9677419 L4.12903226,30.9677419 Z" id="Shape"></path>
                    <path d="M105.290323,0 L38.3710968,0 L22.7096774,15.6614194 L22.7096774,20.6451613 L41.2903226,20.6451613 L41.2903226,4.12903226 L101.16129,4.12903226 L101.16129,90.8387097 L26.8387097,90.8387097 L26.8387097,24.7741935 L22.7096774,24.7741935 L22.7096774,94.9677419 L105.290323,94.9677419 L105.290323,0 Z M37.1612903,16.516129 L27.6934194,16.516129 L37.1612903,7.04825806 L37.1612903,16.516129 Z" id="Shape"></path>
                    <polygon id="Shape" points="30.9677419 24.7741935 30.9677419 33.0322581 97.0322581 33.0322581 97.0322581 8.25806452 45.4193548 8.25806452 45.4193548 12.3870968 92.9032258 12.3870968 92.9032258 28.9032258 35.0967742 28.9032258 35.0967742 24.7741935"></polygon>
                    <rect id="Rectangle-path" x="30.9677419" y="37.1612903" width="4.12903226" height="4.12903226"></rect>
                    <rect id="Rectangle-path" x="39.2258065" y="37.1612903" width="57.8064516" height="4.12903226"></rect>
                    <rect id="Rectangle-path" x="92.9032258" y="45.4193548" width="4.12903226" height="4.12903226"></rect>
                    <rect id="Rectangle-path" x="30.9677419" y="45.4193548" width="57.8064516" height="4.12903226"></rect>
                </g>
            </g>
        </g>
    </g>
</svg>