<?xml version="1.0" encoding="UTF-8"?>
<svg width="157px" height="38px" viewBox="0 0 157 38" version="1.1" xmlns="http://www.w3.org/2000/svg" xmlns:xlink="http://www.w3.org/1999/xlink">
    <!-- Generator: sketchtool 48.2 (47327) - http://www.bohemiancoding.com/sketch -->
    <title>8BA372C3-0C90-4A60-8BC3-74BE9BB0FBA7</title>
    <desc>Created with sketchtool.</desc>
    <defs>
        <linearGradient x1="50%" y1="0%" x2="50%" y2="100%" id="linearGradient-1">
            <stop stop-color="#FF714A" offset="0%"></stop>
            <stop stop-color="#FBB04F" offset="100%"></stop>
        </linearGradient>
    </defs>
    <g id="SEMUX_landing-page" stroke="none" stroke-width="1" fill="none" fill-rule="evenodd" transform="translate(-918.000000, -2813.000000)">
        <g id="Roadmap" transform="translate(232.000000, 2657.000000)">
            <g id="roadmap_node_highlight-copy-4" transform="translate(765.000000, 175.000000) scale(-1, -1) rotate(-270.000000) translate(-765.000000, -175.000000) translate(746.000000, 97.000000)">
                <g id="el.5" transform="translate(0.000000, 123.000000)" fill-rule="nonzero">
                    <path d="M26.5714286,3.32880698 L27.3809524,4.7371484 L33.3492063,15.0756547 L34.1746032,16.5 L33.3492063,17.9243453 L27.3809524,28.2628516 L26.5714286,29.671193 L24.952381,29.671193 L13.031746,29.671193 L11.4126984,29.671193 L10.6031746,28.2628516 L4.63492063,17.9243453 L3.80952381,16.5 L4.63492063,15.0756547 L10.6031746,4.7371484 L11.4126984,3.32880698 L13.031746,3.32880698 L24.952381,3.32880698 L26.5714286,3.32880698 Z M28.4920635,0 L27.5714286,0 L25.7460317,0 L12.2539683,0 L10.4285714,0 L9.50793651,0 L9.04761905,0.800193986 L8.12698413,2.38457808 L1.38095238,14.0834142 L0.46031746,15.699806 L0,16.5 L0.46031746,17.300194 L1.38095238,18.9165858 L8.12698413,30.6154219 L9.04761905,32.199806 L9.50793651,33 L10.4285714,33 L12.2539683,33 L25.7460317,33 L27.5714286,33 L28.4920635,33 L28.952381,32.199806 L29.8730159,30.6154219 L36.6190476,18.9165858 L37.5396825,17.300194 L38,16.5 L37.5396825,15.699806 L36.6190476,14.0834142 L29.8730159,2.38457808 L28.952381,0.800193986 L28.4920635,0 Z" id="Fill-1_5_" fill="#FF774B"></path>
                    <polygon id="Fill-1" fill="url(#linearGradient-1)" points="23.5 9 14.5 9 10 16.5 14.5 24 23.5 24 28 16.5"></polygon>
                </g>
                <path d="M18,0 L18,117.526593" id="Line" stroke="#72738B" stroke-width="2" opacity="0.896886322" stroke-linecap="square"></path>
            </g>
        </g>
    </g>
</svg>