<?xml version="1.0" encoding="UTF-8"?>
<svg width="128px" height="128px" viewBox="0 0 128 128" version="1.1" xmlns="http://www.w3.org/2000/svg" xmlns:xlink="http://www.w3.org/1999/xlink">
    <!-- Generator: Sketch 48.2 (47327) - http://www.bohemiancoding.com/sketch -->
    <title>Secure@1x</title>
    <desc>Created with Sketch.</desc>
    <defs></defs>
    <g id="SEMUX-Copy-3" stroke="none" stroke-width="1" fill="none" fill-rule="evenodd" transform="translate(-1083.000000, -1258.000000)">
        <g id="Services" transform="translate(172.000000, 1258.000000)" fill-rule="nonzero">
            <g id="Secure" transform="translate(911.000000, 0.000000)">
                <g id="Group" transform="translate(8.258065, 45.419355)" fill="#EB4D39">
                    <rect id="Rectangle-path" x="0" y="0" width="4.12903226" height="4.12903226"></rect>
                    <rect id="Rectangle-path" x="8.25806452" y="0" width="4.12903226" height="4.12903226"></rect>
                    <rect id="Rectangle-path" x="16.516129" y="0" width="4.12903226" height="4.12903226"></rect>
                </g>
                <rect id="Rectangle-path" fill="#FBAC4D" x="10.3225806" y="64" width="47.483871" height="28.9032258"></rect>
                <g id="Group">
                    <path d="M61.9354839,101.16129 C61.9354839,106.853161 66.5661935,111.483871 72.2580645,111.483871 L117.677419,111.483871 C123.36929,111.483871 128,106.853161 128,101.16129 L128,90.8387097 L61.9354839,90.8387097 L61.9354839,101.16129 Z M66.0645161,94.9677419 L123.870968,94.9677419 L123.870968,101.16129 C123.870968,104.576 121.092129,107.354839 117.677419,107.354839 L72.2580645,107.354839 C68.8433548,107.354839 66.0645161,104.576 66.0645161,101.16129 L66.0645161,94.9677419 Z" id="Shape" fill="#3B3D66"></path>
                    <path d="M117.677419,0 L72.2580645,0 C66.5661935,0 61.9354839,4.63070968 61.9354839,10.3225806 L61.9354839,86.7096774 L66.0645161,86.7096774 L66.0645161,16.516129 L123.870968,16.516129 L123.870968,86.7096774 L128,86.7096774 L128,10.3225806 C128,4.63070968 123.36929,0 117.677419,0 Z M66.0645161,12.3870968 L66.0645161,10.3225806 C66.0645161,6.90787097 68.8433548,4.12903226 72.2580645,4.12903226 L117.677419,4.12903226 C121.092129,4.12903226 123.870968,6.90787097 123.870968,10.3225806 L123.870968,12.3870968 L66.0645161,12.3870968 Z" id="Shape" fill="#3B3D66"></path>
                    <rect id="Rectangle-path" fill="#3B3D66" x="86.7096774" y="99.0967742" width="16.516129" height="4.12903226"></rect>
                    <polygon id="Shape" fill="#3B3D66" points="105.290323 123.870968 4.12903226 123.870968 4.12903226 61.9354839 0 61.9354839 0 128 109.419355 128 109.419355 115.612903 105.290323 115.612903"></polygon>
                    <rect id="Rectangle-path" fill="#3B3D66" x="8.25806452" y="99.0967742" width="4.12903226" height="4.12903226"></rect>
                    <rect id="Rectangle-path" fill="#3B3D66" x="16.516129" y="99.0967742" width="41.2903226" height="4.12903226"></rect>
                    <rect id="Rectangle-path" fill="#3B3D66" x="8.25806452" y="115.612903" width="84.6451613" height="4.12903226"></rect>
                    <rect id="Rectangle-path" fill="#3F3A34" x="97.0322581" y="115.612903" width="4.12903226" height="4.12903226"></rect>
                    <rect id="Rectangle-path" fill="#3B3D66" x="8.25806452" y="107.354839" width="49.5483871" height="4.12903226"></rect>
                    <polygon id="Shape" fill="#3B3D66" points="57.8064516 90.8387097 12.3870968 90.8387097 12.3870968 66.0645161 57.8064516 66.0645161 57.8064516 61.9354839 8.25806452 61.9354839 8.25806452 94.9677419 57.8064516 94.9677419"></polygon>
                </g>
                <polygon id="Shape" fill="#EB4D39" points="57.8064516 57.8064516 0 57.8064516 0 37.1612903 57.8064516 37.1612903 57.8064516 41.2903226 4.12903226 41.2903226 4.12903226 53.6774194 57.8064516 53.6774194"></polygon>
                <g id="padlock-11" transform="translate(74.000000, 22.000000)">
                    <path d="M30.2253847,60 L10.7746153,60 C5.37624403,60 1,55.6621447 1,50.3111284 L1,27 L40,27 L40,50.311008 C40,55.6621447 35.623756,60 30.2253847,60 Z" id="Shape" fill="#FBAC4D"></path>
                    <path d="M24,39.4907284 C24,37.5628488 22.4330002,36 20.5,36 C18.5669998,36 17,37.5628488 17,39.4907284 C17,40.7671294 17.687219,41.8828636 18.7122381,42.4917313 L18.7122381,49 L22.2876409,49 L22.2876409,42.4917313 C23.312781,41.8828636 24,40.7671294 24,39.4907284 Z" id="Shape" fill="#F6F9FF"></path>
                    <path d="M8.04066045,26.9998804 L8.04066045,17.0290176 C8.04066045,10.4160223 13.3949985,5.0551556 19.9999403,5.0551556 C26.6048821,5.0551556 31.9592201,10.4160223 31.9592201,17.0290176 L31.9592201,27 L36,27 L36,17.0196886 C36.0003584,8.1722612 28.8367124,1 20.0001792,1 C11.1635265,1 4,8.1722612 4,17.0196886 L4,27 L8.04077991,27 L8.04077991,26.9998804 L8.04066045,26.9998804 Z" id="Shape" fill="#F2F2F2"></path>
                    <g id="Group" fill="#3B3D66">
                        <path d="M39.7551345,25.8992656 L37.7798216,25.8992656 L37.7798216,17.1728105 C37.7798216,7.70363281 30.0281842,0 20.5,0 C10.9718158,0 3.22005848,7.70363281 3.22005848,17.1728105 L3.22005848,25.8992656 L1.24474561,25.8992656 C0.569564327,25.8992656 0.0220584795,26.4432617 0.0220584795,27.1143809 L0.0220584795,50.1926348 C0.0220584795,56.1518105 4.90033918,60.9998809 10.8966491,60.9998809 L30.103231,60.9998809 C36.0995409,60.9998809 40.9778216,56.1518105 40.9778216,50.1926348 L40.9778216,27.1143809 C40.9778216,26.4432617 40.4304357,25.8992656 39.7551345,25.8992656 Z M5.66555263,17.1728105 C5.66555263,9.04372656 12.3202602,2.43023047 20.5,2.43023047 C28.6797398,2.43023047 35.3343275,9.0438457 35.3343275,17.1728105 L35.3343275,25.8992656 L33.724538,25.8992656 L33.724538,17.1821035 C33.724538,9.93513672 27.791886,4.03922461 20.4998801,4.03922461 C13.2078743,4.03922461 7.27534211,9.93513672 7.27534211,17.1821035 L7.27534211,25.8992656 L5.66555263,25.8992656 L5.66555263,17.1728105 Z M9.72071637,25.8992656 L9.72071637,17.1821035 C9.72071637,11.2752305 14.5563187,6.46957422 20.4998801,6.46957422 C26.4434415,6.46957422 31.2790439,11.2752305 31.2790439,17.1821035 L31.2790439,25.8992656 L9.72071637,25.8992656 Z M38.5323275,28.3294961 L38.5323275,50.1926348 C38.5323275,54.8117168 34.7509766,58.5695313 30.103231,58.5695313 L10.8966491,58.5695313 C6.24878363,58.5695313 2.46755263,54.8115977 2.46755263,50.1926348 L2.46755263,28.3294961 L38.5323275,28.3294961 Z" id="Shape"></path>
                        <path d="M20.5,35.2843301 C17.9143626,35.2843301 15.8105351,37.3750098 15.8105351,39.9447539 C15.8105351,41.3345293 16.4462749,42.652582 17.5064006,43.5306484 L17.5064006,49.3302949 C17.5064006,50.0014141 18.0539064,50.5454102 18.7290877,50.5454102 L22.2706725,50.5454102 C22.9458538,50.5454102 23.4933596,50.0014141 23.4933596,49.3302949 L23.4933596,43.5306484 C24.5536053,42.652582 25.1892251,41.3345293 25.1892251,39.9447539 C25.1894649,37.3750098 23.0856374,35.2843301 20.5,35.2843301 Z M21.6451228,41.8626797 C21.274924,42.0817793 21.0479854,42.4783984 21.0479854,42.906709 L21.0479854,48.1150605 L19.9517749,48.1150605 L19.9517749,42.906709 C19.9517749,42.4785176 19.7249561,42.0817793 19.3546374,41.8626797 C18.6666287,41.455457 18.2559094,40.7385879 18.2559094,39.944873 C18.2559094,38.7151035 19.2625673,37.7146797 20.5,37.7146797 C21.7374327,37.7146797 22.7440906,38.7151035 22.7440906,39.944873 C22.7439708,40.7384687 22.3331316,41.455457 21.6451228,41.8626797 Z" id="Shape"></path>
                        <path d="M18.9732895,30.6781152 C18.9732895,30.0069961 18.4257836,29.463 17.7506023,29.463 L4.95932164,29.463 C4.28414035,29.463 3.7366345,30.0069961 3.7366345,30.6781152 C3.7366345,31.3492344 4.28414035,31.8932305 4.95932164,31.8932305 L17.7504825,31.8932305 C18.4257836,31.8932305 18.9732895,31.3492344 18.9732895,30.6781152 Z" id="Shape"></path>
                        <path d="M21.3367836,31.8932305 L22.1735673,31.8932305 C22.8487485,31.8932305 23.3962544,31.3492344 23.3962544,30.6781152 C23.3962544,30.0069961 22.8487485,29.463 22.1735673,29.463 L21.3367836,29.463 C20.6616023,29.463 20.1140965,30.0069961 20.1140965,30.6781152 C20.1140965,31.3492344 20.6614825,31.8932305 21.3367836,31.8932305 Z" id="Shape"></path>
                    </g>
                </g>
            </g>
        </g>
    </g>
</svg>