<?xml version="1.0" encoding="UTF-8"?>
<svg width="459px" height="459px" viewBox="0 0 459 459" version="1.1" xmlns="http://www.w3.org/2000/svg" xmlns:xlink="http://www.w3.org/1999/xlink">
    <!-- Generator: sketchtool 48.2 (47327) - http://www.bohemiancoding.com/sketch -->
    <title>6E19E6B7-DD9F-4CFB-BFC4-B8D1C6156016</title>
    <desc>Created with sketchtool.</desc>
    <defs>
        <circle id="path-1" cx="187.5" cy="187.5" r="187.5"></circle>
        <filter x="-22.0%" y="-12.4%" width="144.0%" height="144.0%" filterUnits="objectBoundingBox" id="filter-2">
            <feOffset dx="0" dy="36" in="SourceAlpha" result="shadowOffsetOuter1"></feOffset>
            <feGaussianBlur stdDeviation="21.5" in="shadowOffsetOuter1" result="shadowBlurOuter1"></feGaussianBlur>
            <feColorMatrix values="0 0 0 0 0   0 0 0 0 0   0 0 0 0 0  0 0 0 0.0204087409 0" type="matrix" in="shadowBlurOuter1"></feColorMatrix>
        </filter>
        <linearGradient x1="106.3024%" y1="-22.1168817%" x2="50%" y2="100%" id="linearGradient-3">
            <stop stop-color="#FE3B05" offset="0%"></stop>
            <stop stop-color="#FBB04F" offset="100%"></stop>
        </linearGradient>
        <path d="M139.046954,3.31916372 C78.8907978,-11.6050989 18.268315,25.2391744 3.34585767,84.9362247 C-11.5765997,145.099658 24.7968901,205.729475 84.9530461,220.653738 C145.109202,235.578 205.731685,199.20011 220.654142,139.036677 C235.5766,79.3396262 199.20311,18.7098095 139.046954,3.31916372 Z" id="path-4"></path>
    </defs>
    <g id="SEMUX_landing-page" stroke="none" stroke-width="1" fill="none" fill-rule="evenodd" transform="translate(-773.000000, -2148.000000)">
        <g id="SEMUX_logo_big" transform="translate(815.000000, 2154.000000)">
            <g id="Oval-2">
                <use fill="black" fill-opacity="1" filter="url(#filter-2)" xlink:href="#path-1"></use>
                <use fill="#FFFFFF" fill-rule="evenodd" xlink:href="#path-1"></use>
            </g>
            <g id="Group-7" transform="translate(26.000000, 26.000000)">
                <g id="global" fill-rule="nonzero">
                    <g id="Group" transform="translate(151.000000, 176.000000)" fill="#FCA64E">
                        <path d="M150.92633,0.391401995 C148.237103,-2.60902411e-15 145.738753,1.85430609 145.34507,4.53650568 C145.131589,5.99126861 144.891738,7.46043514 144.632422,8.90329945 C144.152718,11.5710954 145.932769,14.121784 148.607554,14.6002338 C148.901404,14.6528382 149.19337,14.6772617 149.481569,14.6772617 C151.818552,14.6772617 153.892453,13.0102023 154.319414,10.6348619 C154.596939,9.08929368 154.854371,7.51554454 155.082293,5.95807772 C155.476604,3.27587813 153.616184,0.784056476 150.92633,0.391401995 Z" id="Shape"></path>
                        <path d="M126.843216,65.0748088 C124.654413,63.4691212 121.574014,63.9369249 119.96412,66.1206349 C118.282647,68.4007863 116.50448,70.6621505 114.679849,72.8414768 C112.9381,74.9218567 113.217508,78.0167506 115.303338,79.7539492 C116.223816,80.5210971 117.342705,80.894338 118.454687,80.894338 C119.862403,80.894338 121.261328,80.294397 122.234548,79.1320897 C124.188523,76.7993338 126.091639,74.3776514 127.891782,71.9365554 C129.501676,69.7528454 129.032647,66.6811225 126.843216,65.0748088 Z" id="Shape"></path>
                        <path d="M138.975816,43.6328681 C136.54151,42.424845 133.5892,43.413683 132.37864,45.8397491 C131.113454,48.3741553 129.750946,50.9054303 128.328161,53.3621823 C126.968793,55.7093418 127.774995,58.7109254 130.127676,60.0661157 C130.903113,60.5132534 131.7495,60.7249235 132.584586,60.7249235 C134.284268,60.7249235 135.938742,59.8450519 136.849801,58.2713027 C138.373675,55.6392026 139.833505,52.9281958 141.188479,50.2128053 C142.399039,47.7873655 141.408238,44.8408912 138.975816,43.6328681 Z" id="Shape"></path>
                        <path d="M147.223698,20.4268004 C144.615469,19.6577738 141.879151,21.1375864 141.106226,23.7358694 C140.297511,26.4525124 139.393359,29.1798015 138.416371,31.8407088 C137.482708,34.3863874 138.794357,37.2044818 141.346705,38.1357054 C141.904894,38.3392344 142.47564,38.4363021 143.037597,38.4363021 C145.044313,38.4363021 146.929221,37.2019768 147.658822,35.2136547 C148.704876,32.3623694 149.674329,29.4403187 150.540181,26.5289141 C151.314362,23.9300048 149.828161,21.198332 147.223698,20.4268004 Z" id="Shape"></path>
                        <path d="M104.251954,83.9873531 C103.186435,85.0075033 102.093289,86.0201385 101.003283,87.0002091 C101.002655,87.0008354 101.001399,87.0020879 101.000771,87.0027141 C77.446336,108.155957 47.5050657,120.473534 16.0173175,122.112412 L20.5198728,117.904058 C22.5033579,116.051005 22.6044472,112.945465 20.745911,110.967789 C18.8880026,108.989486 15.7743265,108.889914 13.7908413,110.742341 L2.57809117,121.221268 C0.961290205,122.733019 0.0351614967,124.853479 0.0351614967,127.040946 C0.0351614967,129.227788 0.962545973,131.348873 2.57871905,132.858119 L13.7908413,143.337673 C14.7402017,144.225059 15.9488782,144.664056 17.1544152,144.664056 C18.4673204,144.664056 19.7770861,144.143022 20.745911,143.112225 C22.6038193,141.134549 22.50273,138.028383 20.5205006,136.17533 L15.9953416,131.945683 C49.9280696,130.301168 82.2138582,117.082427 107.584762,94.2984473 C107.586017,94.2971948 107.587273,94.2959423 107.589157,94.2946898 C108.756393,93.2457325 109.926141,92.1617055 111.06575,91.0701636 C113.026631,89.1933128 113.090675,86.0871466 111.208907,84.1313891 C109.327767,82.1737529 106.21158,82.1105023 104.251954,83.9873531 Z" id="Shape"></path>
                    </g>
                    <g id="Group" transform="translate(0.000000, 152.000000)" fill="#FE774A">
                        <path d="M139.881982,145.740786 C138.435235,145.527163 136.970365,145.287152 135.528617,145.025151 C132.866353,144.543244 130.319704,146.321336 129.839746,148.997272 C129.359789,151.673207 131.128382,154.234164 133.790646,154.716699 C135.336759,154.996922 136.90787,155.255154 138.459608,155.485112 C138.701461,155.520297 138.94019,155.537889 139.177044,155.537889 C141.566832,155.537889 143.659147,153.77676 144.016615,151.328898 C144.408456,148.637255 142.557995,146.136616 139.881982,145.740786 Z" id="Shape"></path>
                        <path d="M98.7356272,132.72678 C96.2083511,131.456354 93.6885743,130.089799 91.2462907,128.664183 C88.906498,127.297628 85.9098885,128.098712 84.5525088,130.451072 C83.195129,132.802804 83.9906835,135.816137 86.3298513,137.180808 C88.9471194,138.70758 91.6468802,140.173407 94.3541404,141.534308 C95.0572031,141.887414 95.8052618,142.055798 96.5408216,142.055798 C98.3375374,142.055798 100.066134,141.058056 100.924808,139.33274 C102.135326,136.901214 101.155413,133.942543 98.7356272,132.72678 Z" id="Shape"></path>
                        <path d="M78.5486657,120.279501 C76.2744922,118.589999 74.0246915,116.808764 71.863008,114.984806 C69.7919415,113.238128 66.7022153,113.508297 64.9636193,115.591745 C63.2243984,117.674564 63.4949994,120.780257 65.5660659,122.528192 C67.8814858,124.481581 70.2912723,126.39036 72.7273065,128.200497 C73.6028539,128.85016 74.6227635,129.164311 75.6339239,129.164311 C77.134416,129.164311 78.6161597,128.473179 79.5766996,127.166313 C81.1840572,124.977939 80.724098,121.896121 78.5486657,120.279501 Z" id="Shape"></path>
                        <path d="M120.749302,141.485301 C118.040792,140.674164 115.324782,139.76564 112.676267,138.787375 C110.139617,137.847436 107.322991,139.157444 106.389949,141.709604 C105.456282,144.262393 106.757416,147.091634 109.296566,148.029688 C112.13569,149.079579 115.047307,150.052818 117.951425,150.923016 C118.418258,151.063127 118.888842,151.129098 119.351926,151.129098 C121.461739,151.129098 123.409691,149.748092 124.04401,147.610611 C124.815816,145.004417 123.341572,142.261881 120.749302,141.485301 Z" id="Shape"></path>
                        <path d="M57.7748812,101.280296 C36.7086227,77.6599343 24.4415845,47.6340401 22.8054795,16.0568698 L26.9688606,20.5435699 C28.8143221,22.5315155 31.9127976,22.638955 33.8913723,20.7842093 C35.8686971,18.9294637 35.9761876,15.8137172 34.1307261,13.8251434 L23.6947757,2.58043373 C22.1880342,0.956902987 20.0713467,0.0257603562 17.8871652,0.0257603562 C15.7029837,0.0257603562 13.5862963,0.956902987 12.0795548,2.58043373 L1.64297943,13.8251434 C-0.20248206,15.8130889 -0.0956165285,18.9288354 1.88233323,20.7848376 C2.82599962,21.6707426 4.02526837,22.1092969 5.22266228,22.1092969 C6.53254623,22.1092969 7.83993039,21.5834087 8.80421996,20.5448265 L12.9932238,16.0317378 C14.6330785,50.0498589 27.7956623,82.4180606 50.4824023,107.854842 C51.52481,109.022854 52.6047143,110.195892 53.6933678,111.340658 C54.6557826,112.352851 55.9437935,112.862404 57.2343041,112.862404 C58.4504464,112.862404 59.6684635,112.409398 60.6177544,111.498361 C62.5732061,109.620368 62.6431999,106.502737 60.7746155,104.536782 C59.7572056,103.466785 58.748545,102.371027 57.7748812,101.280296 Z" id="Shape"></path>
                    </g>
                    <g id="Group" transform="translate(14.000000, 0.000000)" fill="#FCAB5A">
                        <path d="M153.138364,11.7892901 L141.925614,1.32513822 C139.942757,-0.525927909 136.828453,-0.42524492 134.970545,1.55026788 C133.112008,3.52515532 133.213726,6.6269418 135.196583,8.47738256 L139.722998,12.7016906 C105.789642,14.343261 73.5025974,27.543989 48.1316938,50.295843 C48.1304381,50.2970937 48.1291823,50.297719 48.1279265,50.2989698 C46.9606904,51.3464481 45.7909428,52.4289465 44.6513335,53.5189493 C42.6904522,55.3931538 42.6264081,58.4949402 44.508176,60.4479401 C45.4744893,61.4503924 46.7654185,61.9556835 48.0588593,61.9556835 C49.2844886,61.9556835 50.5113737,61.5029227 51.4651293,60.5905222 C52.5306482,59.5718105 53.623794,58.5606031 54.7138004,57.5819144 C54.7150562,57.581289 54.7156841,57.5800383 54.716312,57.5794129 C78.2701196,36.4566222 108.212018,24.1576636 139.699138,22.51922 L135.197211,26.7216404 C133.214353,28.5720811 133.112636,31.6732422 134.9718,33.648755 C135.940625,34.6787233 137.250391,35.1990229 138.563296,35.1990229 C139.769461,35.1990229 140.97751,34.7600201 141.92687,33.8745101 L153.13962,23.4097329 C154.755793,21.9001134 155.68255,19.7832692 155.68255,17.5995115 C155.68255,15.4157537 154.754537,13.2989095 153.138364,11.7892901 Z" id="Shape"></path>
                        <path d="M7.10764541,129.88043 C4.43160435,129.404531 1.87548912,131.174925 1.39578584,133.839585 C1.11826117,135.382974 0.860828786,136.954504 0.632906941,138.5104 C0.239223754,141.188818 2.09964366,143.677126 4.78887028,144.069227 C5.03060557,144.104247 5.27045721,144.121757 5.50716942,144.121757 C7.90945311,144.121757 10.0116083,142.366996 10.37013,139.929968 C10.5836105,138.477256 10.8234622,137.010161 11.0827782,135.569331 C11.5624815,132.905297 9.78305858,130.35883 7.10764541,129.88043 Z" id="Shape"></path>
                        <path d="M14.3697503,106.378144 C11.8167744,105.446357 8.9919249,106.753985 8.0576337,109.2967 C7.01157918,112.143964 6.04212648,115.061895 5.17564674,117.96982 C4.40209381,120.564439 5.88766705,123.29226 8.49275723,124.062704 C8.95990283,124.200283 9.43081573,124.265946 9.89482191,124.265946 C12.0164415,124.265946 13.9754392,122.887652 14.6102298,120.758301 C15.4183163,118.045488 16.323097,115.322045 17.3000843,112.664889 C18.2337476,110.1228 16.9220982,107.308054 14.3697503,106.378144 Z" id="Shape"></path>
                        <path d="M25.590035,84.4780302 C23.2367263,83.1235001 20.2279068,83.9264626 18.8679103,86.2703125 C17.3440361,88.898076 15.8842061,91.6058855 14.5292328,94.3168219 C13.3180448,96.7394672 14.3094734,99.6824122 16.7418955,100.888732 C17.4463812,101.237683 18.193563,101.402778 18.9306987,101.402778 C20.7390042,101.402778 22.4794983,100.406579 23.3396992,98.6843374 C24.6048852,96.1535047 25.9673932,93.6257989 27.3901781,91.1725109 C28.7489188,88.828661 27.9427159,85.8313096 25.590035,84.4780302 Z" id="Shape"></path>
                        <path d="M40.4131174,64.8192077 C38.3260314,63.0838332 35.2236572,63.3627439 33.4825353,65.4401904 C31.5285607,67.769657 29.6254446,70.1879248 27.8253016,72.6255788 C26.2147795,74.8062097 26.6844366,77.8736014 28.8738676,79.4776503 C29.7516493,80.1205205 30.7732164,80.4313245 31.7853652,80.4313245 C33.2966816,80.4313245 34.7891616,79.7390508 35.7523354,78.4339241 C37.4338084,76.1569877 39.2119756,73.8981868 41.0366061,71.7225587 C42.778356,69.6444868 42.4989476,66.5533315 40.4131174,64.8192077 Z" id="Shape"></path>
                    </g>
                    <g id="Group" transform="translate(176.000000, 14.000000)" fill="#FE774A">
                        <path d="M142.481126,135.037044 C140.504427,133.182298 137.405326,133.290366 135.55924,135.277055 L131.370236,139.790144 C129.730381,105.772651 116.567797,73.4044491 93.8816822,47.9670398 C92.8392746,46.7990276 91.7593703,45.6259889 90.6707167,44.4805955 C88.8015073,42.5146405 85.701157,42.4430142 83.7469551,44.3228919 C81.7915034,46.2008847 81.7215096,49.3185161 83.590094,51.2844711 C84.606879,52.3544683 85.6155396,53.4502259 86.5892033,54.5415854 C107.655462,78.1619471 119.9225,108.187841 121.55798,139.765012 L117.393974,135.278312 C115.548513,133.289738 112.449412,133.182926 110.472087,135.037672 C108.494763,136.892418 108.387272,140.008164 110.232734,141.996738 L120.666809,153.240191 C122.174176,154.86435 124.290863,155.796121 126.475669,155.796121 C128.659851,155.796121 130.777163,154.86435 132.282655,153.241448 L142.71923,141.997366 C144.566567,140.008164 144.459076,136.892418 142.481126,135.037044 Z" id="Shape"></path>
                        <path d="M10.5728133,1.10329721 C9.0204508,0.822446494 7.44996494,0.564842932 5.90572676,0.336769535 C3.22658913,-0.0521490138 0.741809277,1.80259663 0.348719104,4.4929831 C-0.0443710688,7.18399787 1.80671493,9.68463733 4.48272784,10.0804672 C5.92385016,10.2928331 7.38934531,10.5341008 8.83796697,10.7961025 C9.131066,10.8488798 9.42291514,10.8740118 9.71101462,10.8740118 C12.0364336,10.8740118 14.0993758,9.20335848 14.5255881,6.82146798 C15.0042956,4.14490414 13.2350774,1.58457606 10.5728133,1.10329721 Z" id="Shape"></path>
                        <path d="M58.0348582,18.6398168 C55.4175901,17.1130444 52.7178293,15.6472173 50.0105691,14.2863166 C47.5907835,13.0711817 44.6491691,14.05573 43.4392763,16.4878846 C42.2293835,18.9200392 43.2092967,21.878082 45.6290823,23.0944735 C48.1563584,24.3655272 50.6755102,25.7314543 53.1184188,27.1570701 C53.8921002,27.6088188 54.7370254,27.8236979 55.5725763,27.8236979 C57.2611767,27.8236979 58.9041562,26.9447043 59.8134506,25.3708093 C61.1702054,23.0178207 60.3740259,20.0044873 58.0348582,18.6398168 Z" id="Shape"></path>
                        <path d="M78.7980186,33.292433 C76.4807239,31.3371592 74.0709374,29.4296362 71.637403,27.6213849 C69.4613458,26.006022 66.3953675,26.4684518 64.7880099,28.6555689 C63.1806523,30.8433143 63.6412365,33.9251325 65.8166687,35.5417519 C68.0889674,37.2293694 70.3387681,39.0112321 72.5029513,40.8358193 C73.4203701,41.6105149 74.5377711,41.988124 75.6482977,41.988124 C77.0462988,41.988124 78.4343008,41.3899811 79.402965,40.2288802 C81.1396861,38.1466894 80.8690851,35.0409957 78.7980186,33.292433 Z" id="Shape"></path>
                        <path d="M35.068143,7.7915653 C32.2290196,6.74167371 29.3174025,5.76843488 26.4132848,4.89823749 C23.8216394,4.12165699 21.0937561,5.60381992 20.3206996,8.21064231 C19.5482681,10.8168364 21.0225124,13.5587436 23.6154077,14.3359524 C26.3232928,15.1470894 29.0399271,16.0556132 31.6884424,17.0345068 C32.2458931,17.2412179 32.8170925,17.3386046 33.3776678,17.3386046 C35.372491,17.3386046 37.2467,16.1046207 37.9747605,14.1122771 C38.9084278,11.5601169 37.6060432,8.72961924 35.068143,7.7915653 Z" id="Shape"></path>
                    </g>
                </g>
                <g id="bitcoin-2" transform="translate(48.000000, 48.000000)">
                    <path d="M101.847483,113.588652 L95.3191489,140.610528 C103.712722,142.474105 129.359751,150.860204 133.090227,135.485689 C136.820704,119.64528 110.241056,115.918124 101.847483,113.588652 Z" id="Shape" fill="#ED6C0C" fill-rule="nonzero"></path>
                    <path d="M133.008466,136.651985 C137.196168,120.542491 110.208756,116.278213 101.833352,114.382979 L95.3191489,141.390071" id="Shape" fill="#E05A00" fill-rule="nonzero"></path>
                    <path d="M111.657233,76.2553191 L105.64539,100.693983 C112.582132,102.538411 133.854805,109.455014 137.091951,95.6218077 C140.329097,81.3274947 118.593974,78.0997466 111.657233,76.2553191 Z" id="Shape" fill="#ED6C0C" fill-rule="nonzero"></path>
                    <path d="M137.790763,95.7687676 C141.572572,81.3659842 118.88172,78.1137428 111.790829,76.2553191 L105.64539,100.879433" id="Shape" fill="#E05A00" fill-rule="nonzero"></path>
                    <g id="Rectangle-2">
                        <mask id="mask-5" fill="white">
                            <use xlink:href="#path-4"></use>
                        </mask>
                        <use id="Mask" fill="url(#linearGradient-3)" fill-rule="nonzero" xlink:href="#path-4"></use>
                    </g>
                </g>
                <g id="Group" transform="translate(93.000000, 78.000000)" fill="#FFFFFF">
                    <path d="M0.0166781086,106.143379 C0.0166781086,110.735788 0.0502036299,115.330033 0.00681766116,119.924278 C-0.0405124866,124.93902 2.28655311,128.413165 7.24833027,130.545027 C25.6853949,138.464683 44.1145712,146.402701 62.4609197,154.504144 C67.0046139,156.511142 71.1321972,156.487271 75.6147566,154.500472 C87.214587,149.35903 98.9110498,144.403048 110.546378,139.327711 C111.498897,138.912723 113.129815,138.822748 112.991769,137.489645 C112.887248,136.494409 111.445651,136.362201 110.532573,135.967412 C89.3050019,126.793611 68.0655981,117.643682 46.841971,108.468045 C32.4812153,102.259754 18.1480689,96.003722 3.78731321,89.8027764 C0.505756302,88.3852075 0.046259451,88.677168 0.0186501981,92.0411396 C-0.0188195022,96.7418861 0.0107618401,101.442632 0.0166781086,106.143379" id="Page-1"></path>
                    <path d="M137.989019,49.7149888 C137.989019,45.2346941 137.949579,40.7525662 137.99888,36.2722714 C138.058041,31.1613624 135.776392,27.5939919 130.653036,25.399674 C112.206587,17.4968301 93.7995797,9.51149296 75.4359568,1.44182953 C71.0363388,-0.492176591 66.9581631,-0.47567796 62.5822095,1.46199452 C50.9787347,6.60040129 39.2884903,11.5628227 27.6475467,16.6297354 C26.6536393,17.0623661 25.0464279,17.2181865 25.001071,18.3712575 C24.95177,19.621487 26.6161706,19.6691497 27.5923296,20.0926146 C45.0685352,27.65632 62.5664332,35.1778623 80.0485549,42.7305686 C98.0512948,50.5105894 116.032342,58.3291071 134.04297,66.0962956 C137.62222,67.6398341 137.955495,67.4106865 137.979159,63.7974864 C138.010712,59.1045427 137.987047,54.4097658 137.989019,49.7149888" id="Path"></path>
                    <path d="M1.04932102,46.4953002 C1.04932102,50.9418323 1.18871187,55.395645 1.01201924,59.8348967 C0.805877842,65.0313148 3.25208912,68.3967009 8.29568203,70.5771943 C50.313189,88.7437264 92.2953575,106.977603 134.293232,125.182357 C137.485479,126.567462 137.852607,126.37635 137.86635,123.174774 C137.907578,114.598409 137.593458,106.011123 137.978255,97.4474992 C138.300228,90.2981016 135.049084,86.204671 128.063835,83.2852123 C105.26656,73.7587491 82.6754256,63.8082 60.0214674,53.9850586 C41.5060432,45.9565472 23.0200677,37.8734324 4.51642304,29.8248997 C1.33595573,28.4434351 1.07876979,28.5872239 1.05324752,31.8834457 C1.01398249,36.7540638 1.04343126,41.624682 1.04932102,46.4953002" id="Path"></path>
                </g>
            </g>
        </g>
    </g>
</svg>